<svg width="16" height="16" viewBox="0 0 16 16" fill="none" xmlns="http://www.w3.org/2000/svg">
<g clip-path="url(#clip0)">
<path d="M6.38848 0.000610352H2.75488V2.21636L6.38848 1.61077V0.000610352Z" fill="white" fill-opacity="0.27"/>
<path d="M14.3879 15.0619V4.5717H8.46875V15.0619H7.53125V3.6342V2.37076L1.61213 3.35726V15.0619H0V15.9994H16V15.0619H14.3879ZM12.0732 5.91973H13.069V6.85723H12.0732V5.91973ZM12.0732 8.20529H13.069V9.14279H12.0732V8.20529ZM12.0732 10.4908H13.069V11.4283H12.0732V10.4908ZM12.0732 12.7764H13.069V13.7139H12.0732V12.7764ZM9.78766 5.91973H10.7834V6.85723H9.78766V5.91973ZM9.78766 8.20529H10.7834V9.14279H9.78766V8.20529ZM9.78766 10.4908H10.7834V11.4283H9.78766V10.4908ZM9.78766 12.7764H10.7834V13.7139H9.78766V12.7764ZM5.21656 3.6342H6.21234V4.5717H5.21656V3.6342ZM5.21656 5.91973H6.21234V6.85723H5.21656V5.91973ZM5.21656 8.20529H6.21234V9.14279H5.21656V8.20529ZM5.21656 10.4908H6.21234V11.4283H5.21656V10.4908ZM2.93103 5.91973H3.92681V6.85723H2.93103V5.91973ZM2.93103 8.20529H3.92681V9.14279H2.93103V8.20529ZM2.93103 10.4908H3.92681V11.4283H2.93103V10.4908ZM2.96016 12.7764H6.18322V15.0619H5.24572V13.7139H3.89766V15.0619H2.96016V12.7764Z" fill="white" fill-opacity="0.27"/>
</g>
<defs>
<clipPath id="clip0">
<rect width="16" height="16" fill="white"/>
</clipPath>
</defs>
</svg>
