<svg width="16" height="16" viewBox="0 0 16 16" fill="none" xmlns="http://www.w3.org/2000/svg">
<g clip-path="url(#clip0)">
<path d="M9.02704 11.0921C8.74227 11.2667 8.37757 11.3629 8.00011 11.3629C7.62266 11.3629 7.25796 11.2667 6.97319 11.0921L2.32394 8.24063C2.32394 8.24063 1.9043 7.98341 1.9043 8.56611C1.9043 9.22781 1.9043 11.2129 1.9043 11.2129C1.9043 11.2394 1.9043 11.3723 1.9043 11.4134C1.9043 12.9134 4.63344 14.5304 7.99999 14.5304C11.3665 14.5304 14.0957 12.9134 14.0957 11.4134C14.0957 11.3723 14.0957 11.2394 14.0957 11.2129C14.0957 11.2129 14.0957 9.10742 14.0957 8.40557C14.0957 7.93785 13.7974 8.1664 13.7974 8.1664L9.02704 11.0921Z" fill="white" fill-opacity="0.27"/>
<path d="M15.7321 5.97249C16.0893 5.75341 16.0893 5.39488 15.7321 5.17576L8.64951 1.63404C8.29227 1.41496 7.70769 1.41496 7.35045 1.63404L0.26793 5.17576C-0.08931 5.39484 -0.08931 5.75337 0.26793 5.97249L7.35045 10.3163C7.70769 10.5354 8.29227 10.5354 8.64951 10.3163" fill="white" fill-opacity="0.27"/>
<path d="M15.4392 12.411C15.4392 11.2117 15.4392 7.61365 15.4392 7.61365C15.4392 7.61365 15.4425 7.38642 15.3077 7.46145C15.1995 7.52165 14.9344 7.66943 14.841 7.75068C14.7332 7.8444 14.7575 8.05478 14.7575 8.05478C14.7575 8.05478 14.7575 11.322 14.7575 12.411C14.7575 12.4728 14.7043 12.5024 14.679 12.5173C14.4342 12.6612 14.2695 12.9269 14.2695 13.2315C14.2695 13.6892 14.6406 14.0603 15.0983 14.0603C15.5561 14.0603 15.9271 13.6892 15.9271 13.2315C15.9271 12.9257 15.7613 12.6592 15.5149 12.5156C15.4904 12.5014 15.4392 12.4728 15.4392 12.411Z" fill="white" fill-opacity="0.27"/>
</g>
<defs>
<clipPath id="clip0">
<rect width="16" height="16" fill="white"/>
</clipPath>
</defs>
</svg>
