<svg width="16" height="14" viewBox="0 0 16 14" fill="none" xmlns="http://www.w3.org/2000/svg">
<path d="M14.3879 13.0619V2.5717H8.46875V13.0619H7.53125V1.6342V0.370758L1.61213 1.35726V13.0619H0V13.9994H16V13.0619H14.3879ZM12.0732 3.91973H13.069V4.85723H12.0732V3.91973ZM12.0732 6.20529H13.069V7.14279H12.0732V6.20529ZM12.0732 8.49082H13.069V9.42832H12.0732V8.49082ZM12.0732 10.7764H13.069V11.7139H12.0732V10.7764ZM9.78766 3.91973H10.7834V4.85723H9.78766V3.91973ZM9.78766 6.20529H10.7834V7.14279H9.78766V6.20529ZM9.78766 8.49082H10.7834V9.42832H9.78766V8.49082ZM9.78766 10.7764H10.7834V11.7139H9.78766V10.7764ZM5.21656 1.6342H6.21234V2.5717H5.21656V1.6342ZM5.21656 3.91973H6.21234V4.85723H5.21656V3.91973ZM5.21656 6.20529H6.21234V7.14279H5.21656V6.20529ZM5.21656 8.49082H6.21234V9.42832H5.21656V8.49082ZM2.93103 3.91973H3.92681V4.85723H2.93103V3.91973ZM2.93103 6.20529H3.92681V7.14279H2.93103V6.20529ZM2.93103 8.49082H3.92681V9.42832H2.93103V8.49082ZM2.96016 10.7764H6.18322V13.0619H5.24572V11.7139H3.89766V13.0619H2.96016V10.7764Z" fill="white" fill-opacity="0.27"/>
</svg>
