<svg width="16" height="16" viewBox="0 0 16 16" fill="none" xmlns="http://www.w3.org/2000/svg">
<path d="M8 5.3125C9.46701 5.3125 10.6562 4.12326 10.6562 2.65625C10.6562 1.18924 9.46701 0 8 0C6.53299 0 5.34375 1.18924 5.34375 2.65625C5.34375 4.12326 6.53299 5.3125 8 5.3125Z" fill="white" fill-opacity="0.27"/>
<path d="M9.95194 5.67235C9.38953 6.03757 8.71919 6.25 8.0001 6.25C7.281 6.25 6.61066 6.03757 6.04825 5.67235C5.42653 5.90994 4.8501 6.26047 4.34888 6.71035L8.0001 8.07957L11.6513 6.71035C11.1501 6.26047 10.5737 5.90991 9.95194 5.67235Z" fill="white" fill-opacity="0.27"/>
<path d="M13.625 9.6875H13.3125C13.0536 9.6875 12.8438 9.89737 12.8438 10.1562V11.4062C12.8438 11.6651 13.0536 11.875 13.3125 11.875H13.625C14.2291 11.875 14.7188 11.3853 14.7188 10.7812C14.7188 10.1772 14.2291 9.6875 13.625 9.6875Z" fill="white" fill-opacity="0.27"/>
<path d="M2.733 7.32114C2.60663 7.40873 2.53125 7.55267 2.53125 7.70642V8.75001H2.6875C3.46291 8.75001 4.09375 9.38085 4.09375 10.1563V11.4063C4.09375 12.1817 3.46291 12.8125 2.6875 12.8125H2.53125V13.8002C2.53125 13.9956 2.65247 14.1705 2.83541 14.2391L7.53125 16V8.90501L3.16459 7.26751C3.02062 7.21348 2.85934 7.23351 2.733 7.32114Z" fill="white" fill-opacity="0.27"/>
<path d="M11.9062 11.4063V10.1563C11.9062 9.38085 12.5371 8.75001 13.3125 8.75001H13.4688V7.70642C13.4688 7.55267 13.3934 7.40873 13.267 7.32114C13.1406 7.23351 12.9793 7.21348 12.8354 7.26751L8.46875 8.90501V16L13.1646 14.2391C13.3475 14.1705 13.4688 13.9956 13.4688 13.8002V12.8125H13.3125C12.5371 12.8125 11.9062 12.1817 11.9062 11.4063Z" fill="white" fill-opacity="0.27"/>
<path d="M3.15625 11.4062V10.1562C3.15625 9.89737 2.94638 9.6875 2.6875 9.6875H2.375C1.77094 9.6875 1.28125 10.1772 1.28125 10.7812C1.28125 11.3853 1.77094 11.875 2.375 11.875H2.6875C2.94638 11.875 3.15625 11.6651 3.15625 11.4062Z" fill="white" fill-opacity="0.27"/>
</svg>
