<svg width="16" height="16" viewBox="0 0 16 16" fill="none" xmlns="http://www.w3.org/2000/svg">
<path d="M14.2861 1.70098H12.6113V0.771971C12.6113 0.345605 12.2656 0 11.8392 0H11.7167C11.2904 0 10.9449 0.345605 10.9449 0.771971V1.70098H5.03563V0.771971C5.03563 0.345605 4.69002 0 4.26379 0H4.14124C3.71487 0 3.36939 0.345605 3.36939 0.771971V1.70098H1.71405C0.838119 1.70098 0.125244 2.41359 0.125244 3.28979V14.4113C0.125244 15.287 0.838119 16.0001 1.71405 16.0001H14.2862C15.162 16.0001 15.875 15.2871 15.875 14.4113V3.28979C15.8749 2.41359 15.1619 1.70098 14.2861 1.70098ZM14.0788 14.204H1.92134V5.5466H14.0788V14.204Z" fill="white"/>
</svg>
